<svg width="20" height="20" viewBox="0 0 20 20" fill="none" xmlns="http://www.w3.org/2000/svg">
<path d="M19.4175 9.70874C19.4175 15.0707 15.0707 19.4175 9.70874 19.4175C4.34675 19.4175 0 15.0707 0 9.70874C0 4.34675 4.34675 0 9.70874 0C15.0707 0 19.4175 4.34675 19.4175 9.70874Z" fill="#151875"/>
<path d="M10.8201 13.9791V9.7352H12.2519L12.4647 8.07358H10.8201V7.0152C10.8201 6.53571 10.9537 6.20743 11.6419 6.20743H12.5139V4.726C12.0896 4.68054 11.6631 4.65858 11.2365 4.66024C9.97095 4.66024 9.10208 5.4328 9.10208 6.85105V8.07047H7.67969V9.73209H9.10519V13.9791H10.8201Z" fill="white"/>
</svg>
