<svg width="16" height="14" viewBox="0 0 16 14" fill="none" xmlns="http://www.w3.org/2000/svg">
<g filter="url(#filter0_d_209_3271)">
<path d="M12.6666 0.666626H3.33325C2.80282 0.666626 2.29411 0.87734 1.91904 1.25241C1.54397 1.62749 1.33325 2.13619 1.33325 2.66663V9.33329C1.33325 9.86373 1.54397 10.3724 1.91904 10.7475C2.29411 11.1226 2.80282 11.3333 3.33325 11.3333H12.6666C13.197 11.3333 13.7057 11.1226 14.0808 10.7475C14.4559 10.3724 14.6666 9.86373 14.6666 9.33329V2.66663C14.6666 2.13619 14.4559 1.62749 14.0808 1.25241C13.7057 0.87734 13.197 0.666626 12.6666 0.666626V0.666626ZM3.33325 1.99996H12.6666C12.8434 1.99996 13.013 2.0702 13.138 2.19522C13.263 2.32025 13.3333 2.48981 13.3333 2.66663L7.99992 5.91996L2.66659 2.66663C2.66659 2.48981 2.73682 2.32025 2.86185 2.19522C2.98687 2.0702 3.15644 1.99996 3.33325 1.99996V1.99996ZM13.3333 9.33329C13.3333 9.5101 13.263 9.67967 13.138 9.8047C13.013 9.92972 12.8434 9.99996 12.6666 9.99996H3.33325C3.15644 9.99996 2.98687 9.92972 2.86185 9.8047C2.73682 9.67967 2.66659 9.5101 2.66659 9.33329V4.18663L7.65325 7.23329C7.7546 7.2918 7.86956 7.32261 7.98659 7.32261C8.10361 7.32261 8.21857 7.2918 8.31992 7.23329L13.3333 4.18663V9.33329Z" fill="white"/>
<path d="M13.5936 3.09348L13.8333 2.94731V2.66663C13.8333 2.35721 13.7103 2.06046 13.4915 1.84167C13.2728 1.62288 12.976 1.49996 12.6666 1.49996H3.33325C3.02383 1.49996 2.72709 1.62288 2.50829 1.84167C2.2895 2.06046 2.16659 2.35721 2.16659 2.66663V2.94731L2.40621 3.09348L7.73954 6.34681L7.99992 6.50564L8.2603 6.34681L13.5936 3.09348ZM2.92726 3.75996L2.16659 3.29521V4.18663V9.33329C2.16659 9.64271 2.2895 9.93946 2.50829 10.1583C2.72709 10.377 3.02383 10.5 3.33325 10.5H12.6666C12.976 10.5 13.2728 10.377 13.4915 10.1583C13.7103 9.93946 13.8333 9.64271 13.8333 9.33329V4.18663V3.29768L13.0736 3.75934L8.06666 6.80211C8.04213 6.81555 8.01459 6.82261 7.98659 6.82261C7.95871 6.82261 7.9313 6.81562 7.90686 6.80231L2.92726 3.75996ZM3.33325 1.16663H12.6666C13.0644 1.16663 13.4459 1.32466 13.7272 1.60597C14.0086 1.88727 14.1666 2.2688 14.1666 2.66663V9.33329C14.1666 9.73112 14.0086 10.1126 13.7272 10.394C13.4459 10.6753 13.0644 10.8333 12.6666 10.8333H3.33325C2.93543 10.8333 2.5539 10.6753 2.27259 10.394C1.99129 10.1126 1.83325 9.73112 1.83325 9.33329V2.66663C1.83325 2.2688 1.99129 1.88727 2.27259 1.60597C2.5539 1.32466 2.93543 1.16663 3.33325 1.16663Z" stroke="white"/>
</g>
<defs>
<filter id="filter0_d_209_3271" x="-2.66675" y="0.666626" width="21.3333" height="18.6666" filterUnits="userSpaceOnUse" color-interpolation-filters="sRGB">
<feFlood flood-opacity="0" result="BackgroundImageFix"/>
<feColorMatrix in="SourceAlpha" type="matrix" values="0 0 0 0 0 0 0 0 0 0 0 0 0 0 0 0 0 0 127 0" result="hardAlpha"/>
<feOffset dy="4"/>
<feGaussianBlur stdDeviation="2"/>
<feComposite in2="hardAlpha" operator="out"/>
<feColorMatrix type="matrix" values="0 0 0 0 0 0 0 0 0 0 0 0 0 0 0 0 0 0 0.25 0"/>
<feBlend mode="normal" in2="BackgroundImageFix" result="effect1_dropShadow_209_3271"/>
<feBlend mode="normal" in="SourceGraphic" in2="effect1_dropShadow_209_3271" result="shape"/>
</filter>
</defs>
</svg>
